<?xml version="1.0" standalone="no"?>
<!DOCTYPE svg PUBLIC "-//W3C//DTD SVG 20010904//EN"
 "http://www.w3.org/TR/2001/REC-SVG-20010904/DTD/svg10.dtd">
<svg version="1.0" xmlns="http://www.w3.org/2000/svg"
 width="200.000000pt" height="200.000000pt" viewBox="0 0 200.000000 200.000000"
 preserveAspectRatio="xMidYMid meet">
<metadata>
Created by potrace 1.11, written by Peter Selinger 2001-2013
</metadata>
<g transform="translate(0.000000,200.000000) scale(0.100000,-0.100000)"
fill="#000000" stroke="none">
<path d="M491 1989 c-40 -15 -104 -109 -129 -189 -53 -164 -25 -436 51 -498
21 -18 95 -23 163 -12 135 23 221 27 439 18 213 -9 230 11 240 282 9 234 22
310 67 373 11 15 16 28 11 28 -32 5 -828 3 -842 -2z"/>
<path d="M1457 1983 c-42 -12 -106 -68 -93 -81 3 -2 42 -4 87 -3 81 2 81 2 74
-21 -46 -148 -47 -382 0 -500 8 -20 15 -19 -138 -20 l-98 -1 -16 -31 c-22 -42
-36 -54 -83 -71 -45 -16 -41 -15 -74 -15 -20 0 -24 -6 -30 -42 -6 -34 -3 -47
15 -72 13 -17 31 -42 41 -56 23 -31 16 -76 -17 -114 l-23 -27 -28 37 c-16 20
-28 44 -29 53 0 9 -13 35 -29 58 -24 36 -28 52 -28 107 l0 64 -116 1 c-115 2
-288 -14 -312 -29 -7 -4 -14 -27 -17 -51 -4 -39 0 -50 35 -96 44 -59 46 -91 7
-139 l-24 -29 -30 35 c-17 19 -28 41 -26 48 2 7 -10 32 -27 56 -26 38 -31 54
-32 110 -1 65 -1 66 -33 77 -36 11 -81 59 -95 100 -8 24 -14 26 -61 27 -29 0
-57 0 -63 1 -14 1 -50 82 -59 132 -26 142 3 308 67 376 17 18 32 23 73 23 52
0 52 0 83 50 l31 50 -95 0 c-130 0 -163 -19 -218 -126 -40 -77 -59 -182 -52
-289 14 -201 75 -314 173 -320 31 -1 38 -5 36 -21 -11 -108 -15 -139 -18 -144
-1 -3 -6 -39 -10 -80 -4 -41 -9 -77 -10 -81 -5 -7 -18 -237 -19 -348 -3 -199
35 -421 80 -466 39 -39 164 -77 296 -92 141 -15 580 -9 683 11 11 2 52 9 90
16 163 28 253 67 283 120 9 16 25 30 35 30 34 0 127 53 172 99 173 175 182
518 25 992 -38 115 -38 116 -24 175 20 82 16 261 -7 351 -20 79 -56 144 -93
168 -30 20 -189 19 -259 -2z m234 -137 c10 -22 19 -50 19 -61 0 -18 -1 -18
-16 3 -43 62 -76 -3 -79 -153 -3 -163 30 -252 71 -190 9 13 18 53 20 89 5 59
4 64 -14 60 -12 -4 -19 -15 -19 -32 -1 -86 -3 -98 -14 -78 -24 40 -14 286 11
286 20 0 54 -116 54 -185 0 -82 -40 -225 -64 -225 -26 0 -65 138 -69 245 -4
122 41 307 71 289 6 -4 19 -25 29 -48z m38 -694 c72 -250 92 -423 65 -562 -21
-110 -58 -180 -111 -212 l-28 -16 0 181 c0 100 -4 214 -7 252 -9 81 -27 228
-33 266 -3 14 -7 41 -9 60 -9 63 -18 114 -22 121 -5 8 17 13 72 15 l42 1 31
-106z m-1074 -346 c68 -15 87 -98 89 -381 1 -143 -9 -167 -76 -186 -58 -16
-86 -18 -199 -20 -130 -1 -202 19 -226 64 -18 36 -25 171 -12 266 5 31 10 84
13 118 9 110 35 136 141 142 28 2 51 4 52 5 5 5 190 -2 218 -8z m707 -16 c38
-18 56 -64 62 -155 3 -44 8 -96 11 -115 2 -19 5 -72 5 -117 2 -165 -32 -188
-275 -188 -225 0 -250 19 -250 190 0 50 4 122 9 160 4 39 10 88 12 111 7 88
30 112 118 123 83 11 278 5 308 -9z"/>
<path d="M380 732 c-45 -5 -57 -16 -56 -49 1 -25 6 -29 56 -41 98 -23 270 2
276 40 1 9 -4 25 -11 35 -11 15 -29 18 -122 18 -59 0 -124 -1 -143 -3z"/>
<path d="M615 599 c-27 -8 -74 -16 -113 -18 -8 -1 -13 -12 -12 -28 5 -72 4
-73 -50 -73 l-50 0 0 55 c0 30 -3 55 -7 56 -5 0 -20 3 -35 5 -14 2 -29 1 -31
-3 -9 -15 -19 -212 -13 -247 6 -33 10 -35 54 -42 89 -14 246 -8 295 11 9 4 18
17 18 29 5 89 -6 246 -19 257 -4 3 -20 2 -37 -2z"/>
<path d="M1056 721 c-36 -5 -40 -9 -43 -38 -4 -30 -2 -33 39 -44 74 -20 204
-15 269 10 21 7 26 15 23 37 -1 15 -8 30 -15 35 -14 9 -213 9 -273 0z"/>
<path d="M1284 586 c-28 -7 -59 -11 -68 -10 -12 2 -16 -6 -16 -32 l0 -34 -50
0 -50 0 0 34 c0 30 -4 34 -31 40 -59 11 -65 9 -69 -31 -6 -61 -6 -241 1 -247
8 -8 114 -20 174 -19 86 0 163 14 176 30 13 15 16 157 5 208 -3 11 -5 32 -5
48 -1 15 -4 27 -8 26 -5 0 -31 -6 -59 -13z"/>
</g>
</svg>
